<svg xmlns="http://www.w3.org/2000/svg" viewBox="0 0 210 34" width="210" height="34" fill="none">
  <g transform="translate(2,2)">
    <path d="M18.4 5.2C20 3.6 22.2 3.2 24 3.8 23 5.8 21 6.8 18.8 6.4 18.6 6 18.5 5.6 18.4 5.2Z" fill="#34D058"/>
    <path d="M16 8C16.2 5.6 16.8 4.2 18.2 3.6" stroke="#7C5A3A" stroke-width="1.7" stroke-linecap="round"/>
    <path d="M16 8C14.6 9.6 14.2 11.4 13.2 13.2 11.4 16 8.5 18 8.5 22.2 8.5 26.6 11.9 30 16 30 20.1 30 23.5 26.6 23.5 22.2 23.5 18 20.6 16 18.8 13.2 17.8 11.4 17.4 9.6 16 8Z" fill="#21D07C"/>
    <ellipse cx="12.6" cy="22.4" rx="1.5" ry="2.7" fill="#FFFFFF" fill-opacity="0.35"/>
  </g>
  <text x="40" y="22" font-family="ui-sans-serif, -apple-system, 'Segoe UI', Roboto, Helvetica, Arial, sans-serif" font-size="18" font-weight="700" letter-spacing="-0.2">
    <tspan fill="#FFFFFF">Pear Pro</tspan><tspan fill="#21D07C"> MCP</tspan>
  </text>
</svg>
